<mxfile host="multicloud-diagrams" agent="PIP package multicloud-diagrams. Generate resources in draw.io compatible format for Cloud infrastructure. Copyrights @ Roman Tsypuk 2023. MIT license." type="MultiCloud">
	<diagram id="diagram_1" name="AWS components">
		<mxGraphModel dx="1015" dy="661" grid="1" gridSize="10" guides="1" tooltips="1" connect="1" arrows="1" fold="1" page="1" pageScale="1" pageWidth="850" pageHeight="1100" math="0" shadow="1">
			<root>
				<mxCell id="0"/>
				<mxCell id="1" parent="0"/>
				<mxCell id="vertex:lambda_function:arn:aws:lambda:eu-west-1:123456789012:function:nolabel" value="&lt;b&gt;Name&lt;/b&gt;: no-label&lt;BR&gt;&lt;b&gt;ARN&lt;/b&gt;: arn:aws:lambda:eu-west-1:123456789012:function:nolabel" style="verticalLabelPosition=bottom;verticalAlign=top;aspect=fixed;align=left;pointerEvents=1;shape=mxgraph.aws3.lambda_function;prIcon=server;fillColor=#F58534;gradientColor=none;html=1;noLabel=1;" parent="1" vertex="1">
					<mxGeometry width="69" height="72" as="geometry"/>
				</mxCell>
				<mxCell id="vertex:dynamo:arn:aws:dynamodb:eu-west-1:123456789012:table/prod-dynamo-table" value="&lt;b&gt;Name&lt;/b&gt;: no-label&lt;BR&gt;&lt;b&gt;ARN&lt;/b&gt;: arn:aws:dynamodb:eu-west-1:123456789012:table/prod-dynamo-table" style="outlineConnect=0;dashed=0;verticalLabelPosition=bottom;verticalAlign=top;align=left;html=1;shape=mxgraph.aws3.dynamo_db;fillColor=#2E73B8;gradientColor=none;noLabel=1;" parent="1" vertex="1">
					<mxGeometry width="72" height="81" as="geometry" x="140" y="160"/>
				</mxCell>
				<mxCell id="edge:lambda_function:arn:aws:lambda:eu-west-1:123456789012:function:nolabel:to:dynamo:arn:aws:dynamodb:eu-west-1:123456789012:table/prod-dynamo-table" style="jettySize=auto;html=1;startArrow=none;endArrow=classic;" parent="1" source="vertex:lambda_function:arn:aws:lambda:eu-west-1:123456789012:function:nolabel" target="vertex:dynamo:arn:aws:dynamodb:eu-west-1:123456789012:table/prod-dynamo-table" edge="2">
					<mxGeometry as="geometry"/>
				</mxCell>
				<mxCell id="label:lambda_function:arn:aws:lambda:eu-west-1:123456789012:function:nolabel:to:dynamo:arn:aws:dynamodb:eu-west-1:123456789012:table/prod-dynamo-table" value="GET data" style="edgeLabel;html=1;align=left;verticalAlign=middle;resizable=0;points=[];labelBackgroundColor=none;" parent="edge:lambda_function:arn:aws:lambda:eu-west-1:123456789012:function:nolabel:to:dynamo:arn:aws:dynamodb:eu-west-1:123456789012:table/prod-dynamo-table" vertex="1" connectable="0">
					<mxGeometry relative="1" as="geometry">
						<mxPoint as="offset"/>
					</mxGeometry>
				</mxCell>
			</root>
		</mxGraphModel>
	</diagram>
</mxfile>